<?xml version="1.0" encoding="UTF-8" standalone="no"?>
<!DOCTYPE svg PUBLIC "-//W3C//DTD SVG 1.1//EN"
 "http://www.w3.org/Graphics/SVG/1.1/DTD/svg11.dtd">
<!-- Generated by graphviz version 2.43.0 (0)
 -->
<!-- Title: %3 Pages: 1 -->
<svg width="720pt" height="101pt"
 viewBox="0.00 0.00 720.00 100.56" xmlns="http://www.w3.org/2000/svg" xmlns:xlink="http://www.w3.org/1999/xlink">
<g id="graph0" class="graph" transform="scale(0.25 0.25) rotate(0) translate(4 405)">
<title>%3</title>
<polygon fill="white" stroke="transparent" points="-4,4 -4,-405 2924.29,-405 2924.29,4 -4,4"/>
<g id="clust1" class="cluster">
<title>cluster_emergency</title>
<polygon fill="lightcoral" stroke="lightcoral" points="8,-8 8,-191 2912.29,-191 2912.29,-8 8,-8"/>
<text text-anchor="middle" x="1460.15" y="-175.8" font-family="Times,serif" font-size="14.00">🚨 Emergency Case (Accident/Injury)</text>
</g>
<g id="clust2" class="cluster">
<title>cluster_walkin</title>
<polygon fill="lightblue" stroke="lightblue" points="23.94,-199 23.94,-292 2639.12,-292 2639.12,-199 23.94,-199"/>
<text text-anchor="middle" x="1331.53" y="-276.8" font-family="Times,serif" font-size="14.00">🤒 Walk&#45;in Sick Patient (OPD)</text>
</g>
<g id="clust3" class="cluster">
<title>cluster_chronic</title>
<polygon fill="lightgreen" stroke="lightgreen" points="23.94,-300 23.94,-393 2162.15,-393 2162.15,-300 23.94,-300"/>
<text text-anchor="middle" x="1093.04" y="-377.8" font-family="Times,serif" font-size="14.00">🩺 Chronic Disease Patient</text>
</g>
<!-- E1 -->
<g id="node1" class="node">
<title>E1</title>
<ellipse fill="none" stroke="black" cx="156.39" cy="-88" rx="140.28" ry="18"/>
<text text-anchor="middle" x="156.39" y="-84.3" font-family="Times,serif" font-size="14.00">Arrival (Ambulance/Walk&#45;in)</text>
</g>
<!-- E2 -->
<g id="node2" class="node">
<title>E2</title>
<ellipse fill="none" stroke="black" cx="475.2" cy="-88" rx="141.34" ry="26.74"/>
<text text-anchor="middle" x="475.2" y="-91.8" font-family="Times,serif" font-size="14.00">Triage Nurse Assessment</text>
<text text-anchor="middle" x="475.2" y="-76.8" font-family="Times,serif" font-size="14.00">(Vitals, Consciousness)</text>
</g>
<!-- E1&#45;&gt;E2 -->
<g id="edge1" class="edge">
<title>E1&#45;&gt;E2</title>
<path fill="none" stroke="black" d="M296.81,-88C305.52,-88 314.3,-88 323.06,-88"/>
<polygon fill="black" stroke="black" points="323.32,-91.5 333.32,-88 323.32,-84.5 323.32,-91.5"/>
</g>
<!-- E3 -->
<g id="node3" class="node">
<title>E3</title>
<ellipse fill="none" stroke="black" cx="812.85" cy="-88" rx="135.11" ry="26.74"/>
<text text-anchor="middle" x="812.85" y="-91.8" font-family="Times,serif" font-size="14.00">Emergency Registration</text>
<text text-anchor="middle" x="812.85" y="-76.8" font-family="Times,serif" font-size="14.00">(MRN, Insurance, ID)</text>
</g>
<!-- E2&#45;&gt;E3 -->
<g id="edge2" class="edge">
<title>E2&#45;&gt;E3</title>
<path fill="none" stroke="black" d="M617.09,-88C633.73,-88 650.73,-88 667.42,-88"/>
<polygon fill="black" stroke="black" points="667.76,-91.5 677.76,-88 667.76,-84.5 667.76,-91.5"/>
</g>
<!-- E4 -->
<g id="node4" class="node">
<title>E4</title>
<ellipse fill="none" stroke="black" cx="1198.22" cy="-88" rx="189.27" ry="18"/>
<text text-anchor="middle" x="1198.22" y="-84.3" font-family="Times,serif" font-size="14.00">ER Doctor Assessment &amp; Stabilization</text>
</g>
<!-- E3&#45;&gt;E4 -->
<g id="edge3" class="edge">
<title>E3&#45;&gt;E4</title>
<path fill="none" stroke="black" d="M947.94,-88C964.45,-88 981.6,-88 998.81,-88"/>
<polygon fill="black" stroke="black" points="998.96,-91.5 1008.96,-88 998.96,-84.5 998.96,-91.5"/>
</g>
<!-- E5 -->
<g id="node5" class="node">
<title>E5</title>
<ellipse fill="none" stroke="black" cx="1610.24" cy="-88" rx="163.27" ry="18"/>
<text text-anchor="middle" x="1610.24" y="-84.3" font-family="Times,serif" font-size="14.00">Diagnostics (Lab, X&#45;ray, CT, MRI)</text>
</g>
<!-- E4&#45;&gt;E5 -->
<g id="edge4" class="edge">
<title>E4&#45;&gt;E5</title>
<path fill="none" stroke="black" d="M1387.43,-88C1403.91,-88 1420.53,-88 1436.86,-88"/>
<polygon fill="black" stroke="black" points="1436.99,-91.5 1446.99,-88 1436.99,-84.5 1436.99,-91.5"/>
</g>
<!-- E6 -->
<g id="node6" class="node">
<title>E6</title>
<ellipse fill="none" stroke="black" cx="1993.64" cy="-88" rx="77.19" ry="18"/>
<text text-anchor="middle" x="1993.64" y="-84.3" font-family="Times,serif" font-size="14.00">Decision Point</text>
</g>
<!-- E5&#45;&gt;E6 -->
<g id="edge5" class="edge">
<title>E5&#45;&gt;E6</title>
<path fill="none" stroke="black" d="M1773.54,-88C1819.05,-88 1866.76,-88 1906.01,-88"/>
<polygon fill="black" stroke="black" points="1906.05,-91.5 1916.05,-88 1906.05,-84.5 1906.05,-91.5"/>
</g>
<!-- E7 -->
<g id="node7" class="node">
<title>E7</title>
<ellipse fill="none" stroke="black" cx="2468.64" cy="-34" rx="109.38" ry="18"/>
<text text-anchor="middle" x="2468.64" y="-30.3" font-family="Times,serif" font-size="14.00">Discharge with Meds</text>
</g>
<!-- E6&#45;&gt;E7 -->
<g id="edge6" class="edge">
<title>E6&#45;&gt;E7</title>
<path fill="none" stroke="black" d="M2063.41,-80.15C2143.55,-71 2276.63,-55.81 2368.06,-45.37"/>
<polygon fill="black" stroke="black" points="2368.62,-48.83 2378.16,-44.21 2367.83,-41.87 2368.62,-48.83"/>
<text text-anchor="middle" x="2230.15" y="-70.8" font-family="Times,serif" font-size="14.00">Minor</text>
</g>
<!-- E8 -->
<g id="node8" class="node">
<title>E8</title>
<ellipse fill="none" stroke="black" cx="2468.64" cy="-88" rx="98.58" ry="18"/>
<text text-anchor="middle" x="2468.64" y="-84.3" font-family="Times,serif" font-size="14.00">Admit to ICU/Ward</text>
</g>
<!-- E6&#45;&gt;E8 -->
<g id="edge7" class="edge">
<title>E6&#45;&gt;E8</title>
<path fill="none" stroke="black" d="M2071.16,-88C2149.33,-88 2271.4,-88 2359.44,-88"/>
<polygon fill="black" stroke="black" points="2359.47,-91.5 2369.47,-88 2359.47,-84.5 2359.47,-91.5"/>
<text text-anchor="middle" x="2230.15" y="-91.8" font-family="Times,serif" font-size="14.00">Major</text>
</g>
<!-- E9 -->
<g id="node9" class="node">
<title>E9</title>
<ellipse fill="none" stroke="black" cx="2468.64" cy="-142" rx="124.28" ry="18"/>
<text text-anchor="middle" x="2468.64" y="-138.3" font-family="Times,serif" font-size="14.00">Immediate Surgery (OT)</text>
</g>
<!-- E6&#45;&gt;E9 -->
<g id="edge8" class="edge">
<title>E6&#45;&gt;E9</title>
<path fill="none" stroke="black" d="M2063.41,-95.85C2141.33,-104.75 2269.29,-119.36 2360.36,-129.75"/>
<polygon fill="black" stroke="black" points="2360.11,-133.25 2370.44,-130.9 2360.9,-126.29 2360.11,-133.25"/>
<text text-anchor="middle" x="2230.15" y="-124.8" font-family="Times,serif" font-size="14.00">Life&#45;threatening</text>
</g>
<!-- E10 -->
<g id="node10" class="node">
<title>E10</title>
<ellipse fill="none" stroke="black" cx="2786.21" cy="-115" rx="118.17" ry="26.74"/>
<text text-anchor="middle" x="2786.21" y="-118.8" font-family="Times,serif" font-size="14.00">Post&#45;care Monitoring</text>
<text text-anchor="middle" x="2786.21" y="-103.8" font-family="Times,serif" font-size="14.00">(Nurses + Machines)</text>
</g>
<!-- E8&#45;&gt;E10 -->
<g id="edge9" class="edge">
<title>E8&#45;&gt;E10</title>
<path fill="none" stroke="black" d="M2558.38,-95.59C2591.48,-98.42 2629.63,-101.69 2665.09,-104.72"/>
<polygon fill="black" stroke="black" points="2665.24,-108.25 2675.5,-105.61 2665.84,-101.27 2665.24,-108.25"/>
</g>
<!-- E9&#45;&gt;E10 -->
<g id="edge10" class="edge">
<title>E9&#45;&gt;E10</title>
<path fill="none" stroke="black" d="M2576.03,-132.9C2604.68,-130.45 2635.87,-127.78 2665.21,-125.27"/>
<polygon fill="black" stroke="black" points="2665.84,-128.73 2675.5,-124.39 2665.24,-121.75 2665.84,-128.73"/>
</g>
<!-- W1 -->
<g id="node11" class="node">
<title>W1</title>
<ellipse fill="none" stroke="black" cx="156.39" cy="-234" rx="124.4" ry="26.74"/>
<text text-anchor="middle" x="156.39" y="-237.8" font-family="Times,serif" font-size="14.00">Arrival &amp; Registration</text>
<text text-anchor="middle" x="156.39" y="-222.8" font-family="Times,serif" font-size="14.00">(Insurance, ID, MRN)</text>
</g>
<!-- W2 -->
<g id="node12" class="node">
<title>W2</title>
<ellipse fill="none" stroke="black" cx="475.2" cy="-234" rx="138.69" ry="26.74"/>
<text text-anchor="middle" x="475.2" y="-237.8" font-family="Times,serif" font-size="14.00">Consultation with Doctor</text>
<text text-anchor="middle" x="475.2" y="-222.8" font-family="Times,serif" font-size="14.00">(Vitals by Nurse)</text>
</g>
<!-- W1&#45;&gt;W2 -->
<g id="edge11" class="edge">
<title>W1&#45;&gt;W2</title>
<path fill="none" stroke="black" d="M281.24,-234C295.97,-234 311.12,-234 326.15,-234"/>
<polygon fill="black" stroke="black" points="326.53,-237.5 336.53,-234 326.53,-230.5 326.53,-237.5"/>
</g>
<!-- W3 -->
<g id="node13" class="node">
<title>W3</title>
<ellipse fill="none" stroke="black" cx="812.85" cy="-234" rx="140.28" ry="18"/>
<text text-anchor="middle" x="812.85" y="-230.3" font-family="Times,serif" font-size="14.00">Diagnostics (Lab/Radiology)</text>
</g>
<!-- W2&#45;&gt;W3 -->
<g id="edge12" class="edge">
<title>W2&#45;&gt;W3</title>
<path fill="none" stroke="black" d="M614.17,-234C629.9,-234 645.98,-234 661.85,-234"/>
<polygon fill="black" stroke="black" points="662.24,-237.5 672.24,-234 662.24,-230.5 662.24,-237.5"/>
</g>
<!-- W4 -->
<g id="node14" class="node">
<title>W4</title>
<ellipse fill="none" stroke="black" cx="1198.22" cy="-234" rx="120.78" ry="18"/>
<text text-anchor="middle" x="1198.22" y="-230.3" font-family="Times,serif" font-size="14.00">Doctor Reviews Results</text>
</g>
<!-- W3&#45;&gt;W4 -->
<g id="edge13" class="edge">
<title>W3&#45;&gt;W4</title>
<path fill="none" stroke="black" d="M953.34,-234C990.43,-234 1030.33,-234 1066.91,-234"/>
<polygon fill="black" stroke="black" points="1067.13,-237.5 1077.13,-234 1067.13,-230.5 1067.13,-237.5"/>
</g>
<!-- W5 -->
<g id="node15" class="node">
<title>W5</title>
<ellipse fill="none" stroke="black" cx="1610.24" cy="-234" rx="161.37" ry="18"/>
<text text-anchor="middle" x="1610.24" y="-230.3" font-family="Times,serif" font-size="14.00">Prescription (Pharmacy System)</text>
</g>
<!-- W4&#45;&gt;W5 -->
<g id="edge14" class="edge">
<title>W4&#45;&gt;W5</title>
<path fill="none" stroke="black" d="M1319.19,-234C1356.56,-234 1398.51,-234 1438.64,-234"/>
<polygon fill="black" stroke="black" points="1438.8,-237.5 1448.8,-234 1438.8,-230.5 1438.8,-237.5"/>
</g>
<!-- W6 -->
<g id="node16" class="node">
<title>W6</title>
<ellipse fill="none" stroke="black" cx="1993.64" cy="-234" rx="130.78" ry="18"/>
<text text-anchor="middle" x="1993.64" y="-230.3" font-family="Times,serif" font-size="14.00">Billing &amp; Insurance Claim</text>
</g>
<!-- W5&#45;&gt;W6 -->
<g id="edge15" class="edge">
<title>W5&#45;&gt;W6</title>
<path fill="none" stroke="black" d="M1771.6,-234C1798.61,-234 1826.45,-234 1852.88,-234"/>
<polygon fill="black" stroke="black" points="1852.93,-237.5 1862.93,-234 1852.93,-230.5 1852.93,-237.5"/>
</g>
<!-- W7 -->
<g id="node17" class="node">
<title>W7</title>
<ellipse fill="none" stroke="black" cx="2468.64" cy="-234" rx="162.47" ry="18"/>
<text text-anchor="middle" x="2468.64" y="-230.3" font-family="Times,serif" font-size="14.00">Discharge with Follow&#45;up Advice</text>
</g>
<!-- W6&#45;&gt;W7 -->
<g id="edge16" class="edge">
<title>W6&#45;&gt;W7</title>
<path fill="none" stroke="black" d="M2124.51,-234C2177.4,-234 2239.29,-234 2295.83,-234"/>
<polygon fill="black" stroke="black" points="2295.96,-237.5 2305.96,-234 2295.96,-230.5 2295.96,-237.5"/>
</g>
<!-- C1 -->
<g id="node18" class="node">
<title>C1</title>
<ellipse fill="none" stroke="black" cx="156.39" cy="-335" rx="124.4" ry="26.74"/>
<text text-anchor="middle" x="156.39" y="-338.8" font-family="Times,serif" font-size="14.00">Arrival &amp; Registration</text>
<text text-anchor="middle" x="156.39" y="-323.8" font-family="Times,serif" font-size="14.00">(Follow&#45;up via HIS)</text>
</g>
<!-- C2 -->
<g id="node19" class="node">
<title>C2</title>
<ellipse fill="none" stroke="black" cx="475.2" cy="-335" rx="128.89" ry="26.74"/>
<text text-anchor="middle" x="475.2" y="-338.8" font-family="Times,serif" font-size="14.00">Specialist Consultation</text>
<text text-anchor="middle" x="475.2" y="-323.8" font-family="Times,serif" font-size="14.00">(Vitals by Nurse)</text>
</g>
<!-- C1&#45;&gt;C2 -->
<g id="edge17" class="edge">
<title>C1&#45;&gt;C2</title>
<path fill="none" stroke="black" d="M281.24,-335C299.25,-335 317.88,-335 336.15,-335"/>
<polygon fill="black" stroke="black" points="336.26,-338.5 346.26,-335 336.26,-331.5 336.26,-338.5"/>
</g>
<!-- C3 -->
<g id="node20" class="node">
<title>C3</title>
<ellipse fill="none" stroke="black" cx="812.85" cy="-335" rx="159.47" ry="18"/>
<text text-anchor="middle" x="812.85" y="-331.3" font-family="Times,serif" font-size="14.00">Diagnostics (HbA1C, ECG, MRI)</text>
</g>
<!-- C2&#45;&gt;C3 -->
<g id="edge18" class="edge">
<title>C2&#45;&gt;C3</title>
<path fill="none" stroke="black" d="M604.05,-335C616.97,-335 630.22,-335 643.48,-335"/>
<polygon fill="black" stroke="black" points="643.62,-338.5 653.61,-335 643.61,-331.5 643.62,-338.5"/>
</g>
<!-- C4 -->
<g id="node21" class="node">
<title>C4</title>
<ellipse fill="none" stroke="black" cx="1198.22" cy="-335" rx="131.88" ry="18"/>
<text text-anchor="middle" x="1198.22" y="-331.3" font-family="Times,serif" font-size="14.00">Doctor Updates Care Plan</text>
</g>
<!-- C3&#45;&gt;C4 -->
<g id="edge19" class="edge">
<title>C3&#45;&gt;C4</title>
<path fill="none" stroke="black" d="M972.27,-335C999.97,-335 1028.61,-335 1055.8,-335"/>
<polygon fill="black" stroke="black" points="1056.15,-338.5 1066.15,-335 1056.15,-331.5 1056.15,-338.5"/>
</g>
<!-- C5 -->
<g id="node22" class="node">
<title>C5</title>
<ellipse fill="none" stroke="black" cx="1610.24" cy="-335" rx="185.77" ry="18"/>
<text text-anchor="middle" x="1610.24" y="-331.3" font-family="Times,serif" font-size="14.00">Treatment (Meds, Day Care, Dialysis)</text>
</g>
<!-- C4&#45;&gt;C5 -->
<g id="edge20" class="edge">
<title>C4&#45;&gt;C5</title>
<path fill="none" stroke="black" d="M1330.36,-335C1357.09,-335 1385.74,-335 1414.14,-335"/>
<polygon fill="black" stroke="black" points="1414.17,-338.5 1424.17,-335 1414.17,-331.5 1414.17,-338.5"/>
</g>
<!-- C6 -->
<g id="node23" class="node">
<title>C6</title>
<ellipse fill="none" stroke="black" cx="1993.64" cy="-335" rx="160.53" ry="26.74"/>
<text text-anchor="middle" x="1993.64" y="-338.8" font-family="Times,serif" font-size="14.00">Next Appointment Scheduled</text>
<text text-anchor="middle" x="1993.64" y="-323.8" font-family="Times,serif" font-size="14.00">(SMS/Absher Notification)</text>
</g>
<!-- C5&#45;&gt;C6 -->
<g id="edge21" class="edge">
<title>C5&#45;&gt;C6</title>
<path fill="none" stroke="black" d="M1796.35,-335C1805.15,-335 1813.97,-335 1822.72,-335"/>
<polygon fill="black" stroke="black" points="1822.97,-338.5 1832.97,-335 1822.97,-331.5 1822.97,-338.5"/>
</g>
</g>
</svg>
