<?xml version="1.0" encoding="UTF-8" standalone="no"?>
<!DOCTYPE svg PUBLIC "-//W3C//DTD SVG 1.1//EN"
 "http://www.w3.org/Graphics/SVG/1.1/DTD/svg11.dtd">
<!-- Generated by graphviz version 2.43.0 (0)
 -->
<!-- Title: %3 Pages: 1 -->
<svg width="720pt" height="469pt"
 viewBox="0.00 0.00 720.00 469.23" xmlns="http://www.w3.org/2000/svg" xmlns:xlink="http://www.w3.org/1999/xlink">
<g id="graph0" class="graph" transform="scale(0.41 0.41) rotate(0) translate(4 1141.05)">
<title>%3</title>
<polygon fill="white" stroke="transparent" points="-4,4 -4,-1141.05 1753,-1141.05 1753,4 -4,4"/>
<g id="clust1" class="cluster">
<title>cluster_emergency</title>
<polygon fill="lightcoral" stroke="lightcoral" points="8,-103.49 8,-1066.01 619,-1066.01 619,-103.49 8,-103.49"/>
<text text-anchor="middle" x="313.5" y="-1050.81" font-family="Times,serif" font-size="14.00">🚨 Emergency/Trauma Case</text>
</g>
<g id="clust2" class="cluster">
<title>cluster_outpatient</title>
<polygon fill="lightblue" stroke="lightblue" points="627,-8 627,-1129.05 1349,-1129.05 1349,-8 627,-8"/>
<text text-anchor="middle" x="988" y="-1113.85" font-family="Times,serif" font-size="14.00">🤒 Outpatient (Walk&#45;in/Scheduled)</text>
</g>
<g id="clust3" class="cluster">
<title>cluster_inpatient</title>
<polygon fill="lightgreen" stroke="lightgreen" points="1357,-103.49 1357,-1034.81 1741,-1034.81 1741,-103.49 1357,-103.49"/>
<text text-anchor="middle" x="1549" y="-1019.61" font-family="Times,serif" font-size="14.00">🩺 Planned/Chronic Inpatient</text>
</g>
<!-- E_start -->
<g id="node1" class="node">
<title>E_start</title>
<ellipse fill="none" stroke="black" cx="282" cy="-885.52" rx="149.47" ry="149.47"/>
<text text-anchor="middle" x="282" y="-881.82" font-family="Times,serif" font-size="14.00">Start (Accident/Red Crescent)</text>
</g>
<!-- E1 -->
<g id="node2" class="node">
<title>E1</title>
<polygon fill="none" stroke="black" points="382,-635.99 182,-635.99 182,-599.99 382,-599.99 382,-635.99"/>
<text text-anchor="middle" x="282" y="-614.29" font-family="Times,serif" font-size="14.00">Triage Nurse Assessment</text>
</g>
<!-- E_start&#45;&gt;E1 -->
<g id="edge1" class="edge">
<title>E_start&#45;&gt;E1</title>
<path fill="none" stroke="black" d="M282,-735.84C282,-701.37 282,-668.36 282,-646.27"/>
<polygon fill="black" stroke="black" points="285.5,-646.05 282,-636.05 278.5,-646.05 285.5,-646.05"/>
</g>
<!-- E2 -->
<g id="node3" class="node">
<title>E2</title>
<polygon fill="none" stroke="black" points="409,-562.99 155,-562.99 155,-526.99 409,-526.99 409,-562.99"/>
<text text-anchor="middle" x="282" y="-541.29" font-family="Times,serif" font-size="14.00">Quick Registration (ID/Unknown)</text>
</g>
<!-- E1&#45;&gt;E2 -->
<g id="edge2" class="edge">
<title>E1&#45;&gt;E2</title>
<path fill="none" stroke="black" d="M282,-599.8C282,-591.78 282,-582.04 282,-573.06"/>
<polygon fill="black" stroke="black" points="285.5,-573.02 282,-563.02 278.5,-573.02 285.5,-573.02"/>
</g>
<!-- E3 -->
<g id="node4" class="node">
<title>E3</title>
<polygon fill="none" stroke="black" points="428.5,-489.99 135.5,-489.99 135.5,-453.99 428.5,-453.99 428.5,-489.99"/>
<text text-anchor="middle" x="282" y="-468.29" font-family="Times,serif" font-size="14.00">Resuscitation &amp; Stabilization (ABCDE)</text>
</g>
<!-- E2&#45;&gt;E3 -->
<g id="edge3" class="edge">
<title>E2&#45;&gt;E3</title>
<path fill="none" stroke="black" d="M282,-526.8C282,-518.78 282,-509.04 282,-500.06"/>
<polygon fill="black" stroke="black" points="285.5,-500.02 282,-490.02 278.5,-500.02 285.5,-500.02"/>
</g>
<!-- E4 -->
<g id="node5" class="node">
<title>E4</title>
<polygon fill="none" stroke="black" points="412,-416.99 152,-416.99 152,-380.99 412,-380.99 412,-416.99"/>
<text text-anchor="middle" x="282" y="-395.29" font-family="Times,serif" font-size="14.00">Diagnostics (Lab, Radiology, ECG)</text>
</g>
<!-- E3&#45;&gt;E4 -->
<g id="edge4" class="edge">
<title>E3&#45;&gt;E4</title>
<path fill="none" stroke="black" d="M282,-453.8C282,-445.78 282,-436.04 282,-427.06"/>
<polygon fill="black" stroke="black" points="285.5,-427.02 282,-417.02 278.5,-427.02 285.5,-427.02"/>
</g>
<!-- E_decision -->
<g id="node6" class="node">
<title>E_decision</title>
<polygon fill="none" stroke="black" points="282,-329.99 172.74,-311.99 282,-293.99 391.26,-311.99 282,-329.99"/>
<text text-anchor="middle" x="282" y="-308.29" font-family="Times,serif" font-size="14.00">Decision Point</text>
</g>
<!-- E4&#45;&gt;E_decision -->
<g id="edge5" class="edge">
<title>E4&#45;&gt;E_decision</title>
<path fill="none" stroke="black" d="M282,-380.79C282,-369.15 282,-353.54 282,-340.23"/>
<polygon fill="black" stroke="black" points="285.5,-340.17 282,-330.17 278.5,-340.17 285.5,-340.17"/>
</g>
<!-- E5 -->
<g id="node7" class="node">
<title>E5</title>
<polygon fill="none" stroke="black" points="610.5,-242.99 395.5,-242.99 395.5,-206.99 610.5,-206.99 610.5,-242.99"/>
<text text-anchor="middle" x="503" y="-221.29" font-family="Times,serif" font-size="14.00">Discharge with Instructions</text>
</g>
<!-- E_decision&#45;&gt;E5 -->
<g id="edge6" class="edge">
<title>E_decision&#45;&gt;E5</title>
<path fill="none" stroke="black" d="M323.7,-300.76C347.06,-294.56 376.52,-285.92 402,-275.99 422.49,-268 444.46,-257.39 462.66,-248"/>
<polygon fill="black" stroke="black" points="464.56,-250.95 471.8,-243.22 461.32,-244.75 464.56,-250.95"/>
<text text-anchor="middle" x="457.5" y="-264.79" font-family="Times,serif" font-size="14.00">Minor</text>
</g>
<!-- E6 -->
<g id="node8" class="node">
<title>E6</title>
<polygon fill="none" stroke="black" points="168,-242.99 16,-242.99 16,-206.99 168,-206.99 168,-242.99"/>
<text text-anchor="middle" x="92" y="-221.29" font-family="Times,serif" font-size="14.00">Admit to ICU/Ward</text>
</g>
<!-- E_decision&#45;&gt;E6 -->
<g id="edge7" class="edge">
<title>E_decision&#45;&gt;E6</title>
<path fill="none" stroke="black" d="M253.96,-298.45C223.93,-285.01 175.71,-263.44 139.69,-247.32"/>
<polygon fill="black" stroke="black" points="140.9,-244.03 130.35,-243.14 138.04,-250.42 140.9,-244.03"/>
<text text-anchor="middle" x="219.5" y="-264.79" font-family="Times,serif" font-size="14.00">Major</text>
</g>
<!-- E7 -->
<g id="node9" class="node">
<title>E7</title>
<polygon fill="none" stroke="black" points="377.5,-242.99 186.5,-242.99 186.5,-206.99 377.5,-206.99 377.5,-242.99"/>
<text text-anchor="middle" x="282" y="-221.29" font-family="Times,serif" font-size="14.00">Immediate Surgery (OT)</text>
</g>
<!-- E_decision&#45;&gt;E7 -->
<g id="edge8" class="edge">
<title>E_decision&#45;&gt;E7</title>
<path fill="none" stroke="black" d="M282,-293.79C282,-282.15 282,-266.54 282,-253.23"/>
<polygon fill="black" stroke="black" points="285.5,-253.17 282,-243.17 278.5,-253.17 285.5,-253.17"/>
<text text-anchor="middle" x="340" y="-264.79" font-family="Times,serif" font-size="14.00">Life&#45;threatening</text>
</g>
<!-- E_end -->
<g id="node10" class="node">
<title>E_end</title>
<ellipse fill="none" stroke="black" cx="282" cy="-140.74" rx="29.5" ry="29.5"/>
<text text-anchor="middle" x="282" y="-137.04" font-family="Times,serif" font-size="14.00">End</text>
</g>
<!-- E5&#45;&gt;E_end -->
<g id="edge9" class="edge">
<title>E5&#45;&gt;E_end</title>
<path fill="none" stroke="black" d="M457.21,-206.95C416.24,-191.7 356.95,-169.63 318.94,-155.49"/>
<polygon fill="black" stroke="black" points="319.88,-152.1 309.28,-151.9 317.44,-158.66 319.88,-152.1"/>
</g>
<!-- E6&#45;&gt;E_end -->
<g id="edge10" class="edge">
<title>E6&#45;&gt;E_end</title>
<path fill="none" stroke="black" d="M131.37,-206.95C165.2,-192.3 213.57,-171.36 246.3,-157.2"/>
<polygon fill="black" stroke="black" points="247.72,-160.4 255.5,-153.21 244.94,-153.97 247.72,-160.4"/>
</g>
<!-- E7&#45;&gt;E_end -->
<g id="edge11" class="edge">
<title>E7&#45;&gt;E_end</title>
<path fill="none" stroke="black" d="M282,-206.95C282,-199.14 282,-189.54 282,-180.13"/>
<polygon fill="black" stroke="black" points="285.5,-180.1 282,-170.1 278.5,-180.1 285.5,-180.1"/>
</g>
<!-- O_start -->
<g id="node11" class="node">
<title>O_start</title>
<ellipse fill="none" stroke="black" cx="1104" cy="-885.52" rx="212.56" ry="212.56"/>
<text text-anchor="middle" x="1104" y="-881.82" font-family="Times,serif" font-size="14.00">Start (Appointment via Mawid/Private App)</text>
</g>
<!-- O1 -->
<g id="node12" class="node">
<title>O1</title>
<polygon fill="none" stroke="black" points="1234.5,-635.99 973.5,-635.99 973.5,-599.99 1234.5,-599.99 1234.5,-635.99"/>
<text text-anchor="middle" x="1104" y="-614.29" font-family="Times,serif" font-size="14.00">Registration (ID, Insurance, MRN)</text>
</g>
<!-- O_start&#45;&gt;O1 -->
<g id="edge12" class="edge">
<title>O_start&#45;&gt;O1</title>
<path fill="none" stroke="black" d="M1104,-672.72C1104,-662.95 1104,-654.08 1104,-646.49"/>
<polygon fill="black" stroke="black" points="1107.5,-646.32 1104,-636.32 1100.5,-646.32 1107.5,-646.32"/>
</g>
<!-- O2 -->
<g id="node13" class="node">
<title>O2</title>
<polygon fill="none" stroke="black" points="1233,-562.99 975,-562.99 975,-526.99 1233,-526.99 1233,-562.99"/>
<text text-anchor="middle" x="1104" y="-541.29" font-family="Times,serif" font-size="14.00">Nurse Vitals &amp; Initial Assessment</text>
</g>
<!-- O1&#45;&gt;O2 -->
<g id="edge13" class="edge">
<title>O1&#45;&gt;O2</title>
<path fill="none" stroke="black" d="M1104,-599.8C1104,-591.78 1104,-582.04 1104,-573.06"/>
<polygon fill="black" stroke="black" points="1107.5,-573.02 1104,-563.02 1100.5,-573.02 1107.5,-573.02"/>
</g>
<!-- O3 -->
<g id="node14" class="node">
<title>O3</title>
<polygon fill="none" stroke="black" points="1184,-489.99 1024,-489.99 1024,-453.99 1184,-453.99 1184,-489.99"/>
<text text-anchor="middle" x="1104" y="-468.29" font-family="Times,serif" font-size="14.00">Doctor Consultation</text>
</g>
<!-- O2&#45;&gt;O3 -->
<g id="edge14" class="edge">
<title>O2&#45;&gt;O3</title>
<path fill="none" stroke="black" d="M1104,-526.8C1104,-518.78 1104,-509.04 1104,-500.06"/>
<polygon fill="black" stroke="black" points="1107.5,-500.02 1104,-490.02 1100.5,-500.02 1107.5,-500.02"/>
</g>
<!-- O_decision -->
<g id="node15" class="node">
<title>O_decision</title>
<polygon fill="none" stroke="black" points="1032,-416.99 922.74,-398.99 1032,-380.99 1141.26,-398.99 1032,-416.99"/>
<text text-anchor="middle" x="1032" y="-395.29" font-family="Times,serif" font-size="14.00">Decision Point</text>
</g>
<!-- O3&#45;&gt;O_decision -->
<g id="edge15" class="edge">
<title>O3&#45;&gt;O_decision</title>
<path fill="none" stroke="black" d="M1086.57,-453.8C1076.79,-444.16 1064.5,-432.03 1054.05,-421.73"/>
<polygon fill="black" stroke="black" points="1056.41,-419.15 1046.84,-414.62 1051.5,-424.13 1056.41,-419.15"/>
</g>
<!-- O4 -->
<g id="node16" class="node">
<title>O4</title>
<polygon fill="none" stroke="black" points="939,-329.99 797,-329.99 797,-293.99 939,-293.99 939,-329.99"/>
<text text-anchor="middle" x="868" y="-308.29" font-family="Times,serif" font-size="14.00">Prescription Only</text>
</g>
<!-- O_decision&#45;&gt;O4 -->
<g id="edge16" class="edge">
<title>O_decision&#45;&gt;O4</title>
<path fill="none" stroke="black" d="M1007.09,-385.08C981.43,-371.78 940.96,-350.8 910.28,-334.9"/>
<polygon fill="black" stroke="black" points="911.58,-331.64 901.1,-330.14 908.36,-337.85 911.58,-331.64"/>
<text text-anchor="middle" x="979" y="-351.79" font-family="Times,serif" font-size="14.00">Meds</text>
</g>
<!-- O5 -->
<g id="node17" class="node">
<title>O5</title>
<polygon fill="none" stroke="black" points="1341,-329.99 1125,-329.99 1125,-293.99 1341,-293.99 1341,-329.99"/>
<text text-anchor="middle" x="1233" y="-308.29" font-family="Times,serif" font-size="14.00">Diagnostics (Lab/Radiology)</text>
</g>
<!-- O_decision&#45;&gt;O5 -->
<g id="edge17" class="edge">
<title>O_decision&#45;&gt;O5</title>
<path fill="none" stroke="black" d="M1059.47,-385.31C1082.05,-374.99 1114.94,-360.18 1144,-347.99 1155.24,-343.27 1167.36,-338.38 1178.92,-333.8"/>
<polygon fill="black" stroke="black" points="1180.45,-336.96 1188.48,-330.04 1177.89,-330.45 1180.45,-336.96"/>
<text text-anchor="middle" x="1163" y="-351.79" font-family="Times,serif" font-size="14.00">Tests</text>
</g>
<!-- O6 -->
<g id="node18" class="node">
<title>O6</title>
<polygon fill="none" stroke="black" points="1106.5,-329.99 957.5,-329.99 957.5,-293.99 1106.5,-293.99 1106.5,-329.99"/>
<text text-anchor="middle" x="1032" y="-308.29" font-family="Times,serif" font-size="14.00">Referral/Specialist</text>
</g>
<!-- O_decision&#45;&gt;O6 -->
<g id="edge18" class="edge">
<title>O_decision&#45;&gt;O6</title>
<path fill="none" stroke="black" d="M1032,-380.79C1032,-369.15 1032,-353.54 1032,-340.23"/>
<polygon fill="black" stroke="black" points="1035.5,-340.17 1032,-330.17 1028.5,-340.17 1035.5,-340.17"/>
<text text-anchor="middle" x="1061.5" y="-351.79" font-family="Times,serif" font-size="14.00">Referral</text>
</g>
<!-- O7 -->
<g id="node19" class="node">
<title>O7</title>
<polygon fill="none" stroke="black" points="778.5,-329.99 635.5,-329.99 635.5,-293.99 778.5,-293.99 778.5,-329.99"/>
<text text-anchor="middle" x="707" y="-308.29" font-family="Times,serif" font-size="14.00">Admit to Hospital</text>
</g>
<!-- O_decision&#45;&gt;O7 -->
<g id="edge19" class="edge">
<title>O_decision&#45;&gt;O7</title>
<path fill="none" stroke="black" d="M990.6,-387.75C962.94,-380.86 925.75,-371.51 893,-362.99 855.45,-353.22 813.72,-342.03 779.32,-332.72"/>
<polygon fill="black" stroke="black" points="779.93,-329.26 769.36,-330.02 778.1,-336.01 779.93,-329.26"/>
<text text-anchor="middle" x="914.5" y="-351.79" font-family="Times,serif" font-size="14.00">Admit</text>
</g>
<!-- O8 -->
<g id="node20" class="node">
<title>O8</title>
<polygon fill="none" stroke="black" points="947.5,-242.99 788.5,-242.99 788.5,-206.99 947.5,-206.99 947.5,-242.99"/>
<text text-anchor="middle" x="868" y="-221.29" font-family="Times,serif" font-size="14.00">Check&#45;Out &amp; Billing</text>
</g>
<!-- O4&#45;&gt;O8 -->
<g id="edge20" class="edge">
<title>O4&#45;&gt;O8</title>
<path fill="none" stroke="black" d="M868,-293.79C868,-282.15 868,-266.54 868,-253.23"/>
<polygon fill="black" stroke="black" points="871.5,-253.17 868,-243.17 864.5,-253.17 871.5,-253.17"/>
</g>
<!-- O5&#45;&gt;O3 -->
<g id="edge21" class="edge">
<title>O5&#45;&gt;O3</title>
<path fill="none" stroke="black" d="M1219.65,-330.06C1203.39,-350.77 1174.98,-386.69 1150,-416.99 1142.12,-426.54 1133.34,-436.92 1125.57,-446"/>
<polygon fill="black" stroke="black" points="1122.91,-443.73 1119.06,-453.6 1128.23,-448.29 1122.91,-443.73"/>
<text text-anchor="middle" x="1250" y="-395.29" font-family="Times,serif" font-size="14.00">Return with Results</text>
</g>
<!-- O6&#45;&gt;O8 -->
<g id="edge22" class="edge">
<title>O6&#45;&gt;O8</title>
<path fill="none" stroke="black" d="M998.81,-293.79C973.16,-280.5 937.5,-262.01 909.89,-247.7"/>
<polygon fill="black" stroke="black" points="911.35,-244.51 900.86,-243.02 908.13,-250.73 911.35,-244.51"/>
</g>
<!-- O7&#45;&gt;O8 -->
<g id="edge23" class="edge">
<title>O7&#45;&gt;O8</title>
<path fill="none" stroke="black" d="M739.58,-293.79C764.76,-280.5 799.77,-262.01 826.88,-247.7"/>
<polygon fill="black" stroke="black" points="828.53,-250.78 835.74,-243.02 825.27,-244.59 828.53,-250.78"/>
</g>
<!-- O9 -->
<g id="node21" class="node">
<title>O9</title>
<polygon fill="none" stroke="black" points="978.5,-158.74 757.5,-158.74 757.5,-122.74 978.5,-122.74 978.5,-158.74"/>
<text text-anchor="middle" x="868" y="-137.04" font-family="Times,serif" font-size="14.00">Pharmacy (Meds Dispensed)</text>
</g>
<!-- O8&#45;&gt;O9 -->
<g id="edge24" class="edge">
<title>O8&#45;&gt;O9</title>
<path fill="none" stroke="black" d="M868,-206.95C868,-196.03 868,-181.62 868,-169.12"/>
<polygon fill="black" stroke="black" points="871.5,-168.76 868,-158.76 864.5,-168.76 871.5,-168.76"/>
</g>
<!-- O_end -->
<g id="node22" class="node">
<title>O_end</title>
<ellipse fill="none" stroke="black" cx="868" cy="-45.25" rx="29.5" ry="29.5"/>
<text text-anchor="middle" x="868" y="-41.55" font-family="Times,serif" font-size="14.00">End</text>
</g>
<!-- O9&#45;&gt;O_end -->
<g id="edge25" class="edge">
<title>O9&#45;&gt;O_end</title>
<path fill="none" stroke="black" d="M868,-122.59C868,-112.03 868,-98.04 868,-84.92"/>
<polygon fill="black" stroke="black" points="871.5,-84.67 868,-74.67 864.5,-84.67 871.5,-84.67"/>
</g>
<!-- C_start -->
<g id="node23" class="node">
<title>C_start</title>
<ellipse fill="none" stroke="black" cx="1549" cy="-885.52" rx="118.08" ry="118.08"/>
<text text-anchor="middle" x="1549" y="-881.82" font-family="Times,serif" font-size="14.00">Start (Doctor Decision)</text>
</g>
<!-- C1 -->
<g id="node24" class="node">
<title>C1</title>
<polygon fill="none" stroke="black" points="1721.5,-635.99 1376.5,-635.99 1376.5,-599.99 1721.5,-599.99 1721.5,-635.99"/>
<text text-anchor="middle" x="1549" y="-614.29" font-family="Times,serif" font-size="14.00">Pre&#45;Admission Testing (Labs, ECG, Insurance)</text>
</g>
<!-- C_start&#45;&gt;C1 -->
<g id="edge26" class="edge">
<title>C_start&#45;&gt;C1</title>
<path fill="none" stroke="black" d="M1549,-766.9C1549,-722.12 1549,-675.02 1549,-646.32"/>
<polygon fill="black" stroke="black" points="1552.5,-646.26 1549,-636.26 1545.5,-646.26 1552.5,-646.26"/>
</g>
<!-- C2 -->
<g id="node25" class="node">
<title>C2</title>
<polygon fill="none" stroke="black" points="1707.5,-562.99 1390.5,-562.99 1390.5,-526.99 1707.5,-526.99 1707.5,-562.99"/>
<text text-anchor="middle" x="1549" y="-541.29" font-family="Times,serif" font-size="14.00">Admission Day (Wristband, Bed Assigned)</text>
</g>
<!-- C1&#45;&gt;C2 -->
<g id="edge27" class="edge">
<title>C1&#45;&gt;C2</title>
<path fill="none" stroke="black" d="M1549,-599.8C1549,-591.78 1549,-582.04 1549,-573.06"/>
<polygon fill="black" stroke="black" points="1552.5,-573.02 1549,-563.02 1545.5,-573.02 1552.5,-573.02"/>
</g>
<!-- C3 -->
<g id="node26" class="node">
<title>C3</title>
<polygon fill="none" stroke="black" points="1731.5,-489.99 1366.5,-489.99 1366.5,-453.99 1731.5,-453.99 1731.5,-489.99"/>
<text text-anchor="middle" x="1549" y="-468.29" font-family="Times,serif" font-size="14.00">Ward Stay (Rounds, Nursing Care, Dietician, PT)</text>
</g>
<!-- C2&#45;&gt;C3 -->
<g id="edge28" class="edge">
<title>C2&#45;&gt;C3</title>
<path fill="none" stroke="black" d="M1549,-526.8C1549,-518.78 1549,-509.04 1549,-500.06"/>
<polygon fill="black" stroke="black" points="1552.5,-500.02 1549,-490.02 1545.5,-500.02 1552.5,-500.02"/>
</g>
<!-- C4 -->
<g id="node27" class="node">
<title>C4</title>
<polygon fill="none" stroke="black" points="1690,-416.99 1408,-416.99 1408,-380.99 1690,-380.99 1690,-416.99"/>
<text text-anchor="middle" x="1549" y="-395.29" font-family="Times,serif" font-size="14.00">Procedure (OR, PACU, ICU if needed)</text>
</g>
<!-- C3&#45;&gt;C4 -->
<g id="edge29" class="edge">
<title>C3&#45;&gt;C4</title>
<path fill="none" stroke="black" d="M1549,-453.8C1549,-445.78 1549,-436.04 1549,-427.06"/>
<polygon fill="black" stroke="black" points="1552.5,-427.02 1549,-417.02 1545.5,-427.02 1552.5,-427.02"/>
</g>
<!-- C5 -->
<g id="node28" class="node">
<title>C5</title>
<polygon fill="none" stroke="black" points="1733,-329.99 1365,-329.99 1365,-293.99 1733,-293.99 1733,-329.99"/>
<text text-anchor="middle" x="1549" y="-308.29" font-family="Times,serif" font-size="14.00">Discharge Planning (Case Manager, Instructions)</text>
</g>
<!-- C4&#45;&gt;C5 -->
<g id="edge30" class="edge">
<title>C4&#45;&gt;C5</title>
<path fill="none" stroke="black" d="M1549,-380.79C1549,-369.15 1549,-353.54 1549,-340.23"/>
<polygon fill="black" stroke="black" points="1552.5,-340.17 1549,-330.17 1545.5,-340.17 1552.5,-340.17"/>
</g>
<!-- C6 -->
<g id="node29" class="node">
<title>C6</title>
<polygon fill="none" stroke="black" points="1670,-242.99 1428,-242.99 1428,-206.99 1670,-206.99 1670,-242.99"/>
<text text-anchor="middle" x="1549" y="-221.29" font-family="Times,serif" font-size="14.00">Final Billing &amp; Insurance Claim</text>
</g>
<!-- C5&#45;&gt;C6 -->
<g id="edge31" class="edge">
<title>C5&#45;&gt;C6</title>
<path fill="none" stroke="black" d="M1549,-293.79C1549,-282.15 1549,-266.54 1549,-253.23"/>
<polygon fill="black" stroke="black" points="1552.5,-253.17 1549,-243.17 1545.5,-253.17 1552.5,-253.17"/>
</g>
<!-- C_end -->
<g id="node30" class="node">
<title>C_end</title>
<ellipse fill="none" stroke="black" cx="1549" cy="-140.74" rx="29.5" ry="29.5"/>
<text text-anchor="middle" x="1549" y="-137.04" font-family="Times,serif" font-size="14.00">End</text>
</g>
<!-- C6&#45;&gt;C_end -->
<g id="edge32" class="edge">
<title>C6&#45;&gt;C_end</title>
<path fill="none" stroke="black" d="M1549,-206.95C1549,-199.14 1549,-189.54 1549,-180.13"/>
<polygon fill="black" stroke="black" points="1552.5,-180.1 1549,-170.1 1545.5,-180.1 1552.5,-180.1"/>
</g>
</g>
</svg>
